<svg viewBox="0 0 512 512" xmlns="http://www.w3.org/2000/svg"><path d="m437.019531 74.980469c-48.351562-48.351563-112.640625-74.980469-181.019531-74.980469s-132.667969 26.628906-181.019531 74.980469c-48.351563 48.351562-74.980469 112.640625-74.980469 181.019531s26.628906 132.667969 74.980469 181.019531c48.351562 48.351563 112.640625 74.980469 181.019531 74.980469 46.8125 0 92.617188-12.757812 132.460938-36.894531 9.449218-5.722657 12.46875-18.019531 6.746093-27.464844-5.722656-9.449219-18.023437-12.46875-27.46875-6.746094-33.59375 20.347657-72.234375 31.105469-111.738281 31.105469-112.359375 0-204.941406-86.238281-215.066406-196h127.308594c9.121093 40.03125 45.003906 70 87.757812 70s78.636719-29.96875 87.757812-70h127.304688c-3.328125 35.496094-15.496094 69.683594-35.6875 99.886719-6.140625 9.179687-3.671875 21.601562 5.511719 27.742187 9.179687 6.136719 21.601562 3.667969 27.742187-5.511718 28.371094-42.441407 43.371094-91.585938 43.371094-142.117188 0-68.378906-26.628906-132.667969-74.980469-181.019531zm-181.019531-34.980469c112.359375 0 204.941406 86.238281 215.066406 196h-127.308594c-9.121093-40.03125-45.003906-70-87.757812-70s-78.636719 29.96875-87.757812 70h-127.308594c10.125-109.761719 102.707031-196 215.066406-196zm0 266c-27.570312 0-50-22.429688-50-50s22.429688-50 50-50 50 22.429688 50 50-22.429688 50-50 50zm0 0"/></svg>