<?xml version="1.0" encoding="iso-8859-1"?>
<!-- Generator: Adobe Illustrator 19.0.0, SVG Export Plug-In . SVG Version: 6.00 Build 0)  -->
<svg version="1.1" id="Layer_1" xmlns="http://www.w3.org/2000/svg" xmlns:xlink="http://www.w3.org/1999/xlink" x="0px" y="0px"
	 viewBox="0 0 512 512" style="enable-background:new 0 0 512 512;" xml:space="preserve">
<path style="fill:#D3D3D3;" d="M500.87,256v0.301C500.703,391.402,391.135,500.87,256,500.87S11.297,391.402,11.13,256.301V256
	C11.13,120.765,120.765,11.13,256,11.13S500.87,120.765,500.87,256z"/>
<path style="fill:#FF3962;" d="M500.87,256v0.301H11.13V256C11.13,120.765,120.765,11.13,256,11.13S500.87,120.765,500.87,256z"/>
<circle style="fill:#D3D3D3;" cx="256" cy="256" r="66.783"/>
<path d="M437.02,74.98C388.667,26.628,324.381,0,256,0S123.333,26.628,74.98,74.98S0,187.619,0,256s26.628,132.667,74.98,181.02
	S187.619,512,256,512s132.667-26.628,181.02-74.98S512,324.381,512,256S485.372,123.333,437.02,74.98z M256,489.739
	c-125.152,0-227.637-98.874-233.468-222.609h156.363c5.419,37.705,37.925,66.783,77.105,66.783s71.687-29.077,77.105-66.783h34.199
	c6.146,0,11.13-4.984,11.13-11.13s-4.984-11.13-11.13-11.13h-34.188c-1.663-11.62-5.919-22.697-12.564-32.51
	c-3.448-5.089-10.368-6.421-15.458-2.975c-5.09,3.448-6.422,10.368-2.974,15.458c6.236,9.207,9.532,19.981,9.532,31.157
	c0,30.687-24.966,55.652-55.652,55.652S200.348,286.687,200.348,256c0-27.774,20.72-51.488,48.198-55.159
	c6.094-0.814,10.372-6.414,9.559-12.506c-0.815-6.094-6.413-10.366-12.506-9.559c-34.755,4.644-61.785,32.168-66.702,66.094H22.532
	C28.363,121.135,130.848,22.261,256,22.261s227.637,98.874,233.468,222.609h-77.641c-6.146,0-11.13,4.984-11.13,11.13
	s4.984,11.13,11.13,11.13h77.641C483.637,390.865,381.152,489.739,256,489.739z"/>
<path d="M288.772,185.303c-0.1-0.05-0.207-0.101-0.313-0.15c-5.442-2.532-11.944-0.288-14.645,5.117
	c-2.749,5.497-0.521,12.183,4.979,14.933c0.1,0.05,0.207,0.101,0.313,0.15c1.513,0.705,3.109,1.04,4.681,1.04
	c4.083,0,8.014-2.254,9.964-6.155C296.5,194.738,294.272,188.052,288.772,185.303z"/>
<g>
</g>
<g>
</g>
<g>
</g>
<g>
</g>
<g>
</g>
<g>
</g>
<g>
</g>
<g>
</g>
<g>
</g>
<g>
</g>
<g>
</g>
<g>
</g>
<g>
</g>
<g>
</g>
<g>
</g>
</svg>
