<svg xmlns="http://www.w3.org/2000/svg" viewBox="0 0 512 512"><path d="M500.87 256v.301C500.703 391.402 391.135 500.87 256 500.87S11.297 391.402 11.13 256.301V256C11.13 120.765 120.765 11.13 256 11.13S500.87 120.765 500.87 256z" fill="#D3D3D3"/><path d="M500.87 256v.301H11.13V256C11.13 120.765 120.765 11.13 256 11.13S500.87 120.765 500.87 256z" fill="#FF3962"/><circle cx="256" cy="256" r="66.783" fill="#d3d3d3"/><path d="M437.02 74.98C388.667 26.628 324.381 0 256 0S123.333 26.628 74.98 74.98 0 187.619 0 256s26.628 132.667 74.98 181.02S187.619 512 256 512s132.667-26.628 181.02-74.98S512 324.381 512 256s-26.628-132.667-74.98-181.02zM256 489.739c-125.152 0-227.637-98.874-233.468-222.609h156.363c5.419 37.705 37.925 66.783 77.105 66.783s71.687-29.077 77.105-66.783h34.199c6.146 0 11.13-4.984 11.13-11.13s-4.984-11.13-11.13-11.13h-34.188a77.415 77.415 0 00-12.564-32.51c-3.448-5.089-10.368-6.421-15.458-2.975-5.09 3.448-6.422 10.368-2.974 15.458 6.236 9.207 9.532 19.981 9.532 31.157 0 30.687-24.966 55.652-55.652 55.652S200.348 286.687 200.348 256c0-27.774 20.72-51.488 48.198-55.159 6.094-.814 10.372-6.414 9.559-12.506-.815-6.094-6.413-10.366-12.506-9.559-34.755 4.644-61.785 32.168-66.702 66.094H22.532C28.363 121.135 130.848 22.261 256 22.261s227.637 98.874 233.468 222.609h-77.641c-6.146 0-11.13 4.984-11.13 11.13s4.984 11.13 11.13 11.13h77.641C483.637 390.865 381.152 489.739 256 489.739z"/><path d="M288.772 185.303c-.1-.05-.207-.101-.313-.15-5.442-2.532-11.944-.288-14.645 5.117-2.749 5.497-.521 12.183 4.979 14.933a11.062 11.062 0 004.994 1.19c4.083 0 8.014-2.254 9.964-6.155 2.749-5.5.521-12.186-4.979-14.935z"/></svg>
